<svg width="96" height="96" viewBox="0 0 96 96" fill="none" xmlns="http://www.w3.org/2000/svg">
<path d="M57.719 0.78125C37.043 0.78125 20.219 17.6052 20.219 38.2812C20.219 45.5156 22.2815 52.2733 25.8401 58.0083C24.7229 59.145 6.16809 77.9963 3.21509 81.0003C-0.0310073 84.2503 -0.0310073 89.5355 3.21509 92.7853C6.47679 96.047 11.7659 96.0197 15.0081 92.7774L37.5431 69.8794C43.3712 73.6138 50.2971 75.7817 57.7191 75.7817C78.3951 75.7817 95.2191 58.9577 95.2191 38.2817C95.2191 17.6017 78.399 0.78125 57.719 0.78125ZM13.039 90.8203C10.871 92.9844 7.34759 92.9844 5.17959 90.8203C3.01549 88.6523 3.01549 85.1289 5.1874 82.9531L20.7384 67.1521L28.5978 75.0115L13.039 90.8203ZM57.719 73.0043C38.574 73.0043 22.996 57.4263 22.996 38.2812C22.996 19.1362 38.574 3.55825 57.719 3.55825C76.864 3.55825 92.442 19.1362 92.442 38.2812C92.442 57.4263 76.868 73.0043 57.719 73.0043Z" fill="#A1A1A1"/>
<path d="M57.719 9.11304C41.637 9.11304 28.551 22.199 28.551 38.281C28.551 54.363 41.637 67.449 57.719 67.449C73.801 67.449 86.887 54.363 86.887 38.281C86.887 22.199 73.801 9.11304 57.719 9.11304ZM57.719 64.668C43.168 64.668 31.328 52.828 31.328 38.277C31.328 23.726 43.168 11.886 57.719 11.886C72.27 11.886 84.11 23.726 84.11 38.277C84.11 52.832 72.27 64.668 57.719 64.668Z" fill="#A1A1A1"/>
<path d="M77.164 31.336H72.996C72.2304 31.336 71.6054 31.9571 71.6054 32.7266V35.5039H67.4374V29.9492C67.4374 29.1836 66.8163 28.5586 66.0468 28.5586H61.8788V24.3906H64.6561C65.4217 24.3906 66.0467 23.7695 66.0467 23V18.832C66.0467 18.0664 65.4256 17.4414 64.6561 17.4414C63.8905 17.4414 63.2655 18.0625 63.2655 18.832V21.6093H60.4882C59.7226 21.6093 59.0976 22.2304 59.0976 22.9999V28.5546H56.3203V22.9999C56.3203 22.2343 55.6992 21.6093 54.9297 21.6093C54.164 21.6093 53.5391 22.2304 53.5391 22.9999V28.5546H49.3711C48.6055 28.5546 47.9805 29.1757 47.9805 29.9452V34.1132H43.8125V31.3359C43.8125 30.5703 43.1914 29.9453 42.4219 29.9453H38.2539C37.4883 29.9453 36.8633 30.5664 36.8633 31.3359C36.8633 32.1015 37.4844 32.7265 38.2539 32.7265H41.0312V35.5038C41.0312 36.2694 41.6523 36.8944 42.4218 36.8944H47.9765V39.6717H42.4218C41.6562 39.6717 41.0312 40.2928 41.0312 41.0623C41.0312 41.8279 41.6523 42.4529 42.4218 42.4529H47.9765V46.6209C47.9765 47.3865 48.5976 48.0115 49.3671 48.0115H53.5351V53.5662C53.5351 54.3318 54.1562 54.9568 54.9257 54.9568C55.6913 54.9568 56.3163 54.3357 56.3163 53.5662V48.0115H59.0936V53.5662C59.0936 54.3318 59.7147 54.9568 60.4842 54.9568H63.2615V57.7341C63.2615 58.4997 63.8826 59.1247 64.6521 59.1247C65.4177 59.1247 66.0427 58.5036 66.0427 57.7341V53.5661C66.0427 52.8005 65.4216 52.1755 64.6521 52.1755H61.8748V48.0075H66.0428C66.8084 48.0075 67.4334 47.3864 67.4334 46.6169V43.8396H72.9881C73.7537 43.8396 74.3787 43.2185 74.3787 42.449C74.3787 41.6834 73.7576 41.0584 72.9881 41.0584H67.4334V38.2811H72.9881C73.7537 38.2811 74.3787 37.66 74.3787 36.8905V34.1132H77.156C77.9216 34.1132 78.5466 33.4921 78.5466 32.7226C78.5544 31.957 77.9335 31.336 77.164 31.336Z" fill="#A1A1A1"/>
</svg>
