<svg width="25" height="24" viewBox="0 0 25 24" fill="none" xmlns="http://www.w3.org/2000/svg">
<path d="M10.5 7C10.5 8.65685 9.15685 10 7.5 10C5.84315 10 4.5 8.65685 4.5 7C4.5 5.34315 5.84315 4 7.5 4C9.15685 4 10.5 5.34315 10.5 7Z" stroke="#A1A1A1" stroke-width="1.5"/>
<path d="M20.5 17C20.5 18.6569 19.1569 20 17.5 20C15.8431 20 14.5 18.6569 14.5 17C14.5 15.3431 15.8431 14 17.5 14C19.1569 14 20.5 15.3431 20.5 17Z" stroke="#A1A1A1" stroke-width="1.5"/>
<path d="M14.5 6C14.5 4.89543 15.3954 4 16.5 4H18.5C19.6046 4 20.5 4.89543 20.5 6V8C20.5 9.10457 19.6046 10 18.5 10H16.5C15.3954 10 14.5 9.10457 14.5 8V6Z" stroke="#A1A1A1" stroke-width="1.5"/>
<path d="M4.5 16C4.5 14.8954 5.39543 14 6.5 14H8.5C9.60457 14 10.5 14.8954 10.5 16V18C10.5 19.1046 9.60457 20 8.5 20H6.5C5.39543 20 4.5 19.1046 4.5 18V16Z" stroke="#A1A1A1" stroke-width="1.5"/>
</svg>
